<svg version="1.1" xmlns="http://www.w3.org/2000/svg" xmlns:xlink="http://www.w3.org/1999/xlink" x="0px" y="0px" width="40px"
    height="39.06px" viewBox="0 0 40 39.06" style="overflow:visible;enable-background:new 0 0 40 39.06;" xml:space="preserve">
<style type="text/css">
	.st0{fill:#689ED1;}
	.st1{fill:#71ACE3;}
	.st2{fill:#FFFFFF;}
	.st3{fill:#A6CFFF;}
	.st4{fill:#EDDE78;}
	.st5{fill:#D6BBC0;}
	.st6{fill:#FF9EB1;}
	.st7{fill:#477ABD;}
</style>
    <defs>
</defs>
    <g>
	<path class="st0" d="M6.25,3.91h25v34.38h-25V3.91z"/>
        <path class="st1" d="M3.13,0.78h25v34.38h-25V0.78z"/>
        <path class="st2" d="M7.81,5.47h15.63v9.38H7.81V5.47z"/>
        <g>
		<g>
			<path class="st3" d="M21.88,18.75H7.81c-0.43,0-0.78-0.35-0.78-0.78s0.35-0.78,0.78-0.78h14.06c0.43,0,0.78,0.35,0.78,0.78
				S22.31,18.75,21.88,18.75z"/>
		</g>
            <g>
			<path class="st3" d="M18.75,21.88H7.81c-0.43,0-0.78-0.35-0.78-0.78s0.35-0.78,0.78-0.78h10.94c0.43,0,0.78,0.35,0.78,0.78
				S19.18,21.88,18.75,21.88z"/>
		</g>
            <g>
			<path class="st3" d="M16.41,25H7.81c-0.43,0-0.78-0.35-0.78-0.78s0.35-0.78,0.78-0.78h8.59c0.43,0,0.78,0.35,0.78,0.78
				S16.84,25,16.41,25z"/>
		</g>
            <g>
			<path class="st3" d="M14.84,28.13H7.81c-0.43,0-0.78-0.35-0.78-0.78s0.35-0.78,0.78-0.78h7.03c0.43,0,0.78,0.35,0.78,0.78
				S15.28,28.13,14.84,28.13z"/>
		</g>
	</g>
        <g>
		<path class="st4" d="M22.03,27.34l17.19-17.19l-3.13-3.13L18.91,24.22l-1.56,4.69L22.03,27.34z"/>
            <path class="st5" d="M22.03,27.34l-4.69,1.56l1.56-4.69L22.03,27.34z"/>
            <path class="st6" d="M32.96,10.16l3.12-3.12l3.12,3.12l-3.12,3.12L32.96,10.16z"/>
            <g>
			<path class="st7" d="M39.77,9.6l-3.13-3.13c-0.31-0.31-0.8-0.31-1.1,0l-3.51,3.51V3.91c0-0.43-0.35-0.78-0.78-0.78h-2.34V0.78
				c0-0.43-0.35-0.78-0.78-0.78h-25C2.69,0,2.34,0.35,2.34,0.78v4.69H0.78C0.35,5.47,0,5.82,0,6.25s0.35,0.78,0.78,0.78h1.56v3.13
				H0.78C0.35,10.16,0,10.51,0,10.94s0.35,0.78,0.78,0.78h1.56v3.13H0.78C0.35,14.84,0,15.19,0,15.63s0.35,0.78,0.78,0.78h1.56v3.13
				H0.78C0.35,19.53,0,19.88,0,20.31s0.35,0.78,0.78,0.78h1.56v3.13H0.78C0.35,24.22,0,24.57,0,25s0.35,0.78,0.78,0.78h1.56v3.13
				H0.78C0.35,28.91,0,29.26,0,29.69s0.35,0.78,0.78,0.78h1.56v4.69c0,0.43,0.35,0.78,0.78,0.78h2.34v2.34
				c0,0.43,0.35,0.78,0.78,0.78h25c0.43,0,0.78-0.35,0.78-0.78V18.45l7.74-7.74C40.08,10.4,40.08,9.91,39.77,9.6z M22.03,26.24
				l-2.02-2.02l12.96-12.96l2.02,2.02L22.03,26.24z M19.25,25.67L20.58,27l-2.01,0.67L19.25,25.67z M30.47,4.69v6.86l-1.56,1.56
				V4.69L30.47,4.69z M3.91,30.47h0.78c0.43,0,0.78-0.35,0.78-0.78s-0.35-0.78-0.78-0.78H3.91v-3.13h0.78
				c0.43,0,0.78-0.35,0.78-0.78s-0.35-0.78-0.78-0.78H3.91v-3.13h0.78c0.43,0,0.78-0.35,0.78-0.78s-0.35-0.78-0.78-0.78H3.91v-3.13
				h0.78c0.43,0,0.78-0.35,0.78-0.78s-0.35-0.78-0.78-0.78H3.91v-3.13h0.78c0.43,0,0.78-0.35,0.78-0.78s-0.35-0.78-0.78-0.78H3.91
				V7.03h0.78c0.43,0,0.78-0.35,0.78-0.78S5.12,5.47,4.69,5.47H3.91V1.56h23.44v13.11l-8.99,8.99c-0.02,0.02-0.04,0.04-0.06,0.06
				c0,0.01-0.01,0.01-0.01,0.02c-0.01,0.02-0.03,0.04-0.04,0.05c0,0.01-0.01,0.01-0.01,0.02c-0.01,0.02-0.02,0.04-0.03,0.05
				c0,0.01-0.01,0.02-0.01,0.02c-0.01,0.02-0.02,0.04-0.02,0.06c0,0,0,0.01-0.01,0.01l-1.56,4.69c-0.09,0.28-0.02,0.59,0.19,0.8
				c0.15,0.15,0.35,0.23,0.55,0.23c0.08,0,0.17-0.01,0.25-0.04l4.69-1.56c0,0,0.01,0,0.01-0.01c0.02-0.01,0.04-0.01,0.06-0.02
				c0.01,0,0.02-0.01,0.02-0.01c0.02-0.01,0.04-0.02,0.05-0.03c0.01,0,0.01-0.01,0.02-0.01c0.02-0.01,0.04-0.02,0.05-0.04
				c0.01,0,0.01-0.01,0.02-0.01c0.02-0.02,0.04-0.04,0.06-0.06l4.76-4.76v11.24H3.91L3.91,30.47z M30.47,37.5H7.03v-1.56h21.09
				c0.43,0,0.78-0.35,0.78-0.78V21.57l1.56-1.56V37.5z M36.09,12.18l-2.02-2.02l2.02-2.02l2.02,2.02L36.09,12.18z"/>
		</g>
	</g>
</g>
</svg>
